<svg width="17" height="17" viewBox="0 0 17 17" fill="none" xmlns="http://www.w3.org/2000/svg">
<path d="M5.77734 2.13156C7.91062 1.03549 10.4207 0.666931 12.7344 1.38742C15.0173 2.09839 16.5888 3.97157 16.541 6.41183C16.5311 6.89289 16.4496 7.37062 16.2998 7.82785C16.2266 8.05148 16.1388 8.27043 16.0381 8.48312C15.835 8.90262 15.5635 9.32296 15.2578 9.67648C14.9207 10.0664 14.3057 10.6301 13.748 10.4362C13.5793 10.3788 13.4412 10.2552 13.3643 10.0944C13.2086 9.77196 13.2533 9.26564 13.2598 8.90109C13.2756 7.90149 13.368 6.78084 12.8818 5.86886C12.6871 5.50381 12.1599 5.12024 11.7725 4.99093C10.6345 4.6164 9.81533 5.62118 9.48535 6.58371C9.13427 7.58955 9.21342 8.77317 9.7041 9.7214C10.8889 12.0108 13.804 12.6118 16.1602 12.655C16.4753 12.6607 16.7841 12.6375 16.9404 12.9763C16.9591 13.0167 16.9804 13.084 17 13.1179V15.5222C16.9732 15.5803 16.9608 15.6334 16.9287 15.695C16.7407 16.0561 16.3349 15.9871 15.9893 15.987H0.600586C0.421775 15.9864 0.27641 15.9399 0.151367 15.8083C0.107591 15.7622 0.0782951 15.7137 0.0556641 15.6618L0 15.4958V12.28C0.0357241 12.184 0.0198317 11.8841 0.03125 11.7605C0.0469764 11.5919 0.0583096 11.4101 0.0732422 11.24C0.113183 10.7726 0.178371 10.3076 0.268555 9.84738C0.417881 9.05435 0.64283 8.27716 0.94043 7.52707C1.85048 5.20478 3.56793 3.28898 5.77734 2.13156ZM8.54883 5.89425C7.50343 6.74157 6.84538 7.97603 6.72363 9.31613C6.44468 12.0903 8.07142 14.5072 10.915 14.8708C11.0466 14.8877 11.2203 14.8778 11.3555 14.8777H14.4473C14.9244 14.8776 15.4146 14.8828 15.8906 14.8757C15.8928 14.5086 15.886 14.1298 15.8936 13.7644C15.3755 13.7262 14.9226 13.7108 14.3975 13.6384C12.5565 13.3846 10.7004 12.7339 9.44629 11.2995C8.51871 10.2384 8.07468 8.90783 8.17773 7.50168C8.20607 7.08095 8.28799 6.66521 8.42188 6.26535C8.43958 6.21335 8.55773 5.91776 8.54883 5.89425ZM6.24902 6.99679C5.02538 8.30129 4.37134 10.0404 4.43262 11.8278C4.46254 12.6845 4.68646 13.5604 5.04688 14.3347C5.13075 14.5148 5.24818 14.7033 5.3252 14.8767L6.81934 14.8777L7.97754 14.8747C7.73872 14.6885 7.54705 14.5362 7.33203 14.32C6.35431 13.3371 5.79657 12.0792 5.625 10.7136C5.50718 9.71453 5.61544 8.70177 5.94043 7.74972C5.99162 7.60163 6.04772 7.45529 6.10938 7.31125C6.12965 7.26298 6.24618 7.02549 6.24902 6.99679ZM10.0518 2.12863C8.14009 2.20084 6.30221 2.8855 4.80859 4.08078C2.60452 5.83384 1.45956 8.43384 1.1875 11.196C1.09137 12.172 1.10776 13.1416 1.11914 14.1208C1.12205 14.3717 1.11874 14.6253 1.12695 14.8757L2.78418 14.8767C3.21034 14.8767 3.65008 14.8815 4.0752 14.8737C3.95247 14.6059 3.85168 14.374 3.75293 14.0944C3.32773 12.8876 3.2158 11.5927 3.42773 10.3308C3.55694 9.54677 3.80772 8.78268 4.16504 8.07296C4.40233 7.6229 4.61581 7.2619 4.9248 6.85128C5.88021 5.58474 7.20375 4.64426 8.71387 4.15793C9.47176 3.91804 10.2617 3.79533 11.0566 3.79367C11.6398 3.79036 12.0317 3.8462 12.5488 4.12082C13.3398 4.54078 13.9097 5.17619 14.1543 6.04367C14.3968 6.86284 14.4017 7.70628 14.3789 8.55441C14.3756 8.67912 14.3735 8.89787 14.3623 9.01144C15.0082 8.34422 15.4427 7.25228 15.4287 6.32394C15.412 5.2239 15.0564 4.26015 14.2422 3.49875C13.161 2.48761 11.5703 2.099 10.1201 2.12668C10.097 2.12711 10.0745 2.12704 10.0518 2.12863Z" fill="#FDF911"/>
</svg>
