<svg width="20" height="20" viewBox="0 0 20 20" fill="none" xmlns="http://www.w3.org/2000/svg">
<path d="M10 5.83325V17.4999" stroke="#FDF911" stroke-width="1.5" stroke-linecap="round" stroke-linejoin="round"/>
<path d="M16.6666 9.16675V15.8334C16.6666 16.2754 16.491 16.6994 16.1784 17.0119C15.8659 17.3245 15.4419 17.5001 14.9999 17.5001H4.99992C4.55789 17.5001 4.13397 17.3245 3.82141 17.0119C3.50885 16.6994 3.33325 16.2754 3.33325 15.8334V9.16675" stroke="#FDF911" stroke-width="1.5" stroke-linecap="round" stroke-linejoin="round"/>
<path d="M6.25008 5.83329C5.69755 5.83329 5.16764 5.6138 4.77694 5.2231C4.38624 4.8324 4.16675 4.30249 4.16675 3.74996C4.16675 3.19742 4.38624 2.66752 4.77694 2.27682C5.16764 1.88612 5.69755 1.66662 6.25008 1.66662C7.05399 1.65262 7.84177 2.04267 8.5107 2.78592C9.17962 3.52918 9.69864 4.59113 10.0001 5.83329C10.3015 4.59113 10.8205 3.52918 11.4895 2.78592C12.1584 2.04267 12.9462 1.65262 13.7501 1.66662C14.3026 1.66662 14.8325 1.88612 15.2232 2.27682C15.6139 2.66752 15.8334 3.19742 15.8334 3.74996C15.8334 4.30249 15.6139 4.8324 15.2232 5.2231C14.8325 5.6138 14.3026 5.83329 13.7501 5.83329" stroke="#FDF911" stroke-width="1.5" stroke-linecap="round" stroke-linejoin="round"/>
<path d="M16.6667 5.83325H3.33333C2.8731 5.83325 2.5 6.20635 2.5 6.66659V8.33325C2.5 8.79349 2.8731 9.16659 3.33333 9.16659H16.6667C17.1269 9.16659 17.5 8.79349 17.5 8.33325V6.66659C17.5 6.20635 17.1269 5.83325 16.6667 5.83325Z" stroke="#FDF911" stroke-width="1.5" stroke-linecap="round" stroke-linejoin="round"/>
</svg>
