<svg width="20" height="20" viewBox="0 0 20 20" fill="none" xmlns="http://www.w3.org/2000/svg">
<path d="M10.0292 14.1767C10.0292 13.5137 9.76577 12.8778 9.29693 12.409C8.82809 11.9401 8.19221 11.6767 7.52917 11.6767L7.27 11.6751C7.15164 11.6744 7.03614 11.6387 6.93801 11.5725C6.83989 11.5063 6.76353 11.4126 6.71854 11.3031C6.67356 11.1937 6.66196 11.0733 6.6852 10.9573C6.70844 10.8412 6.76549 10.7346 6.84917 10.6509L7.845 9.65508C8.15749 9.3425 8.58134 9.16684 9.02333 9.16675H10C10.442 9.16675 10.866 8.99115 11.1785 8.67859C11.4911 8.36603 11.6667 7.94211 11.6667 7.50008C11.6667 7.05805 11.4911 6.63413 11.1785 6.32157C10.866 6.00901 10.442 5.83341 10 5.83341H7.7025C7.37408 5.83338 7.04887 5.89805 6.74546 6.02373C6.44204 6.14942 6.16636 6.33365 5.93417 6.56591L3.67833 8.82175C2.92398 9.5764 2.50014 10.5997 2.5 11.6667C2.5 13.4349 3.20238 15.1306 4.45262 16.3808C5.70286 17.631 7.39856 18.3334 9.16667 18.3334H10.8333C12.6014 18.3334 14.2971 17.631 15.5474 16.3808C16.7976 15.1306 17.5 13.4349 17.5 11.6667V5.83341C17.5 5.39139 17.3244 4.96746 17.0118 4.6549C16.6993 4.34234 16.2754 4.16675 15.8333 4.16675C15.3913 4.16675 14.9674 4.34234 14.6548 4.6549C14.3423 4.96746 14.1667 5.39139 14.1667 5.83341V7.50008C14.1667 7.94211 14.3423 8.36603 14.6548 8.67859C14.9674 8.99115 15.3913 9.16675 15.8333 9.16675C16.2754 9.16675 16.6993 8.99115 17.0118 8.67859C17.3244 8.36603 17.5 7.94211 17.5 7.50008" stroke="#FDF911" stroke-width="1.5" stroke-linecap="round" stroke-linejoin="round"/>
<path d="M11.5733 8.05167C11.8242 8.2195 12.1159 8.31604 12.4174 8.33099C12.7189 8.34593 13.0188 8.27871 13.2851 8.13651C13.5513 7.9943 13.774 7.78246 13.9292 7.52358C14.0845 7.26471 14.1665 6.96853 14.1666 6.66667V4.16667C14.1666 3.72464 13.991 3.30072 13.6784 2.98816C13.3659 2.67559 12.9419 2.5 12.4999 2.5C12.0579 2.5 11.634 2.67559 11.3214 2.98816C11.0088 3.30072 10.8333 3.72464 10.8333 4.16667" stroke="#FDF911" stroke-width="1.5" stroke-linecap="round" stroke-linejoin="round"/>
<path d="M7.50008 4.16667C7.50008 3.72464 7.32449 3.30072 7.01193 2.98816C6.69937 2.67559 6.27544 2.5 5.83341 2.5C5.39139 2.5 4.96746 2.67559 4.6549 2.98816C4.34234 3.30072 4.16675 3.72464 4.16675 4.16667V8.33333" stroke="#FDF911" stroke-width="1.5" stroke-linecap="round" stroke-linejoin="round"/>
<path d="M7.5 5.83341V3.33341C7.5 2.89139 7.6756 2.46746 7.98816 2.1549C8.30072 1.84234 8.72464 1.66675 9.16667 1.66675C9.60869 1.66675 10.0326 1.84234 10.3452 2.1549C10.6577 2.46746 10.8333 2.89139 10.8333 3.33341V6.05675" stroke="#FDF911" stroke-width="1.5" stroke-linecap="round" stroke-linejoin="round"/>
</svg>
